<svg width="38" height="42" viewBox="0 0 38 42" fill="none" xmlns="http://www.w3.org/2000/svg">
<path fill-rule="evenodd" clip-rule="evenodd" d="M27.4444 0C30.244 0 32.9288 1.05357 34.9084 2.92893C36.8879 4.8043 38 7.34784 38 10V26C38 28.6522 36.8879 31.1957 34.9084 33.0711C32.9288 34.9464 30.244 36 27.4444 36H10.5556C7.75605 36 5.0712 34.9464 3.09165 33.0711C1.1121 31.1957 0 28.6522 0 26V10C0 7.34784 1.1121 4.8043 3.09165 2.92893C5.0712 1.05357 7.75605 0 10.5556 0H27.4444ZM27.4444 4H10.5556C8.87585 4 7.26494 4.63214 6.07721 5.75736C4.88948 6.88258 4.22222 8.4087 4.22222 10V26C4.22222 27.5913 4.88948 29.1174 6.07721 30.2426C7.26494 31.3679 8.87585 32 10.5556 32H27.4444C29.1241 32 30.7351 31.3679 31.9228 30.2426C33.1105 29.1174 33.7778 27.5913 33.7778 26V10C33.7778 8.4087 33.1105 6.88258 31.9228 5.75736C30.7351 4.63214 29.1241 4 27.4444 4ZM19 10C21.2396 10 23.3875 10.8429 24.9711 12.3431C26.5548 13.8434 27.4444 15.8783 27.4444 18C27.4444 20.1217 26.5548 22.1566 24.9711 23.6569C23.3875 25.1571 21.2396 26 19 26C16.7604 26 14.6125 25.1571 13.0289 23.6569C11.4452 22.1566 10.5556 20.1217 10.5556 18C10.5556 15.8783 11.4452 13.8434 13.0289 12.3431C14.6125 10.8429 16.7604 10 19 10ZM19 14C17.8802 14 16.8063 14.4214 16.0144 15.1716C15.2226 15.9217 14.7778 16.9391 14.7778 18C14.7778 19.0609 15.2226 20.0783 16.0144 20.8284C16.8063 21.5786 17.8802 22 19 22C20.1198 22 21.1937 21.5786 21.9856 20.8284C22.7774 20.0783 23.2222 19.0609 23.2222 18C23.2222 16.9391 22.7774 15.9217 21.9856 15.1716C21.1937 14.4214 20.1198 14 19 14ZM28.5 7C29.0599 7 29.5969 7.21071 29.9928 7.58579C30.3887 7.96086 30.6111 8.46957 30.6111 9C30.6111 9.53043 30.3887 10.0391 29.9928 10.4142C29.5969 10.7893 29.0599 11 28.5 11C27.9401 11 27.4031 10.7893 27.0072 10.4142C26.6113 10.0391 26.3889 9.53043 26.3889 9C26.3889 8.46957 26.6113 7.96086 27.0072 7.58579C27.4031 7.21071 27.9401 7 28.5 7Z" fill="black"/>
</svg>
